<?xml version="1.0" standalone="no"?>
<!DOCTYPE svg PUBLIC "-//W3C//DTD SVG 20010904//EN"
 "http://www.w3.org/TR/2001/REC-SVG-20010904/DTD/svg10.dtd">
<svg version="1.0" xmlns="http://www.w3.org/2000/svg"
 width="64.000000pt" height="64.000000pt" viewBox="0 0 64.000000 64.000000"
 preserveAspectRatio="xMidYMid meet">
<metadata>
Created by potrace 1.10, written by Peter Selinger 2001-2011
</metadata>
<g transform="translate(0.000000,64.000000) scale(0.100000,-0.100000)"
fill="#000000" stroke="none">
<path d="M71 567 c-8 -11 16 -40 107 -131 l117 -117 -118 -116 c-93 -91 -115
-118 -106 -129 16 -20 31 -9 149 111 l104 106 113 -116 c94 -98 116 -115 128
-105 21 17 11 31 -108 148 l-104 102 104 103 c119 116 129 130 108 147 -11 9
-35 -10 -127 -105 l-113 -117 -105 107 c-117 119 -133 131 -149 112z"/>
</g>
</svg>
