<?xml version="1.0" standalone="no"?>
<!DOCTYPE svg PUBLIC "-//W3C//DTD SVG 20010904//EN"
 "http://www.w3.org/TR/2001/REC-SVG-20010904/DTD/svg10.dtd">
<svg version="1.0" xmlns="http://www.w3.org/2000/svg"
 width="50.000000pt" height="50.000000pt" viewBox="0 0 50.000000 50.000000"
 preserveAspectRatio="xMidYMid meet">
<metadata>
Created by potrace 1.10, written by Peter Selinger 2001-2011
</metadata>
<g transform="translate(0.000000,50.000000) scale(0.100000,-0.100000)"
fill="#f0483e" stroke="none">
<path d="M228 403 c-15 -9 -32 -27 -39 -40 -9 -16 -16 -20 -23 -13 -19 19 -64
11 -85 -16 -12 -15 -21 -31 -21 -36 0 -6 -11 -19 -24 -29 -31 -24 -40 -62 -26
-105 19 -57 45 -64 248 -64 165 0 181 2 205 20 50 39 43 116 -13 148 -17 10
-30 25 -30 37 0 31 -36 82 -69 100 -39 20 -89 19 -123 -2z m139 -36 c15 -14
27 -40 30 -65 3 -24 11 -42 18 -42 7 0 24 -9 39 -21 32 -25 35 -70 6 -99 -19
-19 -33 -20 -205 -20 -184 0 -186 0 -210 25 -15 14 -25 36 -25 53 0 27 31 72
50 72 6 0 10 9 10 19 0 43 39 59 92 37 11 -5 18 -1 23 14 19 59 124 76 172 27z"/>
<path d="M240 250 c0 -47 3 -60 15 -60 12 0 15 13 15 60 0 47 -3 60 -15 60
-12 0 -15 -13 -15 -60z"/>
<path d="M240 155 c0 -8 7 -15 15 -15 8 0 15 7 15 15 0 8 -7 15 -15 15 -8 0
-15 -7 -15 -15z"/>
</g>
</svg>
