<svg width="14" height="10" viewBox="0 0 14 10" fill="none" xmlns="http://www.w3.org/2000/svg">
    <path d="M4.9 6.125C3.262 6.125 0 6.944 0 8.575V9.8H9.8V8.575C9.8 6.944 6.538 6.125 4.9 6.125ZM1.638 8.4C2.226 7.994 3.647 7.525 4.9 7.525C6.153 7.525 7.574 7.994 8.162 8.4H1.638ZM4.9 4.9C6.251 4.9 7.35 3.801 7.35 2.45C7.35 1.099 6.251 0 4.9 0C3.549 0 2.45 1.099 2.45 2.45C2.45 3.801 3.549 4.9 4.9 4.9ZM4.9 1.4C5.481 1.4 5.95 1.869 5.95 2.45C5.95 3.031 5.481 3.5 4.9 3.5C4.319 3.5 3.85 3.031 3.85 2.45C3.85 1.869 4.319 1.4 4.9 1.4ZM9.828 6.167C10.64 6.755 11.2 7.539 11.2 8.575V9.8H14V8.575C14 7.161 11.55 6.356 9.828 6.167ZM9.1 4.9C10.451 4.9 11.55 3.801 11.55 2.45C11.55 1.099 10.451 0 9.1 0C8.722 0 8.372 0.0909999 8.05 0.245C8.491 0.868 8.75 1.631 8.75 2.45C8.75 3.269 8.491 4.032 8.05 4.655C8.372 4.809 8.722 4.9 9.1 4.9Z" fill="white"/>
    </svg>
    