<?xml version="1.0" standalone="no"?>
<!DOCTYPE svg PUBLIC "-//W3C//DTD SVG 20010904//EN"
 "http://www.w3.org/TR/2001/REC-SVG-20010904/DTD/svg10.dtd">
<svg version="1.0" xmlns="http://www.w3.org/2000/svg"
 width="64.000000pt" height="64.000000pt" viewBox="0 0 64.000000 64.000000"
 preserveAspectRatio="xMidYMid meet">
<metadata>
Created by potrace 1.10, written by Peter Selinger 2001-2011
</metadata>
<g transform="translate(0.000000,64.000000) scale(0.100000,-0.100000)"
fill="#f0483e" stroke="none">
<path d="M426 590 c-36 -11 -71 -44 -86 -81 l-12 -29 -149 0 -149 0 2 -217 3
-218 215 0 215 0 3 138 c2 131 3 137 23 137 34 0 76 31 99 73 41 72 9 159 -70
191 -45 18 -52 18 -94 6z m89 -24 c38 -16 75 -68 75 -104 0 -70 -54 -122 -127
-122 -70 0 -120 60 -110 132 6 45 29 75 72 94 39 17 48 17 90 0z m-343 -156
c-4 -55 2 -59 53 -40 19 7 35 6 60 -5 l35 -14 1 57 c1 55 1 56 11 22 14 -51
44 -87 83 -101 l35 -13 0 -128 0 -128 -200 0 -200 0 0 200 0 200 63 0 62 0 -3
-50z m133 10 c0 -35 -2 -39 -20 -33 -26 9 -45 8 -72 -1 -21 -7 -23 -4 -23 33
l0 41 58 0 57 0 0 -40z"/>
<path d="M492 468 l-43 -43 -24 30 c-34 41 -43 24 -10 -20 l28 -35 50 43 c49
42 68 67 50 67 -4 0 -28 -19 -51 -42z"/>
<path d="M143 267 c-2 -4 2 -10 10 -13 22 -8 127 0 130 10 2 11 -133 14 -140
3z"/>
<path d="M140 200 c0 -6 44 -10 111 -10 71 0 108 4 104 10 -3 6 -52 10 -111
10 -63 0 -104 -4 -104 -10z"/>
</g>
</svg>
