<svg width="13" height="14" viewBox="0 0 13 14" fill="none" xmlns="http://www.w3.org/2000/svg">
<path d="M7.14 7L9.1 9.8H7.42L6.3 8.1998L5.18 9.8H3.5L5.46 7L3.5 4.2H5.18L6.3 5.8002L7.42 4.2H8.4V1.4H1.4V12.6H11.2V4.2H9.1L7.14 7ZM0 0.6944C0 0.3108 0.3129 0 0.6993 0H9.1L12.6 3.5V13.2951C12.6006 13.387 12.5832 13.4782 12.5486 13.5634C12.514 13.6485 12.463 13.7261 12.3984 13.7915C12.3339 13.857 12.2571 13.9091 12.1724 13.9448C12.0877 13.9806 11.9968 13.9994 11.9049 14H0.6951C0.511265 13.9987 0.335312 13.9252 0.205252 13.7952C0.0751926 13.6653 0.00146625 13.4894 0 13.3056V0.6944Z" fill="black"/>
</svg>
