<svg width="14" height="14" viewBox="0 0 14 14" fill="none" xmlns="http://www.w3.org/2000/svg">
    <path d="M12.6 0H1.4C0.7 0 0 0.63 0 1.4V3.507C0 4.011 0.301 4.445 0.7 4.69V12.6C0.7 13.37 1.47 14 2.1 14H11.9C12.53 14 13.3 13.37 13.3 12.6V4.69C13.699 4.445 14 4.011 14 3.507V1.4C14 0.63 13.3 0 12.6 0ZM11.9 12.6H2.1V4.9H11.9V12.6ZM12.6 3.5H1.4V1.4H12.6V3.5Z" fill="white"/>
    <path d="M9.2 8H5V9.4H9.2V8Z" fill="white"/>
    <path d="M6.40002 6.59999L6.40002 10.8L7.80002 10.8L7.80002 6.59999L6.40002 6.59999Z" fill="white"/>
    </svg>
    