<svg width="12" height="12" viewBox="0 0 12 12" fill="none" xmlns="http://www.w3.org/2000/svg">
    <path d="M1.33333 1.33333H5.33333C5.7 1.33333 6 1.03333 6 0.666667C6 0.3 5.7 0 5.33333 0H1.33333C0.6 0 0 0.6 0 1.33333V10.6667C0 11.4 0.6 12 1.33333 12H5.33333C5.7 12 6 11.7 6 11.3333C6 10.9667 5.7 10.6667 5.33333 10.6667H1.33333V1.33333Z" fill="#F0483E"/>
    <path d="M11.7667 5.76669L9.90667 3.90669C9.69333 3.69335 9.33333 3.84002 9.33333 4.14002V5.33335H4.66667C4.3 5.33335 4 5.63335 4 6.00002C4 6.36669 4.3 6.66669 4.66667 6.66669H9.33333V7.86002C9.33333 8.16002 9.69333 8.30669 9.9 8.09335L11.76 6.23335C11.8933 6.10669 11.8933 5.89335 11.7667 5.76669Z" fill="#F0483E"/>
    </svg>
    