<svg width="31" height="31" viewBox="0 0 31 31" fill="none" xmlns="http://www.w3.org/2000/svg">
<path d="M27.8333 6.24998H21.6667V3.16665C21.6667 1.47081 20.2792 0.083313 18.5833 0.083313H12.4167C10.7208 0.083313 9.33333 1.47081 9.33333 3.16665V6.24998H3.16667C1.47083 6.24998 0.083334 7.63748 0.083334 9.33331V27.8333C0.083334 29.5291 1.47083 30.9166 3.16667 30.9166H27.8333C29.5292 30.9166 30.9167 29.5291 30.9167 27.8333V9.33331C30.9167 7.63748 29.5292 6.24998 27.8333 6.24998ZM12.4167 3.16665H18.5833V6.24998H12.4167V3.16665ZM27.8333 27.8333H3.16667V9.33331H27.8333V27.8333Z" fill="#01A768"/>
<path d="M17.0417 12.4166H13.9583V17.0416H9.33333V20.125H13.9583V24.75H17.0417V20.125H21.6667V17.0416H17.0417V12.4166Z" fill="#01A768"/>
</svg>
