<svg width="12" height="12" viewBox="0 0 12 12" fill="none" xmlns="http://www.w3.org/2000/svg">
    <path d="M6 0C2.688 0 0 2.688 0 6C0 9.312 2.688 12 6 12C9.312 12 12 9.312 12 6C12 2.688 9.312 0 6 0ZM3.042 9.768C3.3 9.228 4.872 8.7 6 8.7C7.128 8.7 8.706 9.228 8.958 9.768C8.142 10.416 7.116 10.8 6 10.8C4.884 10.8 3.858 10.416 3.042 9.768ZM9.816 8.898C8.958 7.854 6.876 7.5 6 7.5C5.124 7.5 3.042 7.854 2.184 8.898C1.572 8.094 1.2 7.092 1.2 6C1.2 3.354 3.354 1.2 6 1.2C8.646 1.2 10.8 3.354 10.8 6C10.8 7.092 10.428 8.094 9.816 8.898ZM6 2.4C4.836 2.4 3.9 3.336 3.9 4.5C3.9 5.664 4.836 6.6 6 6.6C7.164 6.6 8.1 5.664 8.1 4.5C8.1 3.336 7.164 2.4 6 2.4ZM6 5.4C5.502 5.4 5.1 4.998 5.1 4.5C5.1 4.002 5.502 3.6 6 3.6C6.498 3.6 6.9 4.002 6.9 4.5C6.9 4.998 6.498 5.4 6 5.4Z" fill="black"/>
    </svg>
    