<?xml version="1.0" standalone="no"?>
<!DOCTYPE svg PUBLIC "-//W3C//DTD SVG 20010904//EN"
 "http://www.w3.org/TR/2001/REC-SVG-20010904/DTD/svg10.dtd">
<svg version="1.0" xmlns="http://www.w3.org/2000/svg"
 width="64.000000pt" height="64.000000pt" viewBox="0 0 64.000000 64.000000"
 preserveAspectRatio="xMidYMid meet">
<metadata>
Created by potrace 1.10, written by Peter Selinger 2001-2011
</metadata>
<g transform="translate(0.000000,64.000000) scale(0.100000,-0.100000)"
fill="#01a768" stroke="none">
<path d="M210 593 c-61 -22 -142 -104 -163 -167 -39 -114 -14 -231 67 -312 81
-81 198 -106 312 -67 66 22 145 101 167 167 18 52 22 157 7 191 -5 12 -6 -9
-3 -51 8 -100 -14 -163 -81 -229 -114 -114 -278 -114 -392 -1 -113 114 -113
278 0 392 107 106 268 113 376 16 l41 -37 -115 -115 -116 -114 -54 53 c-41 41
-58 52 -74 47 -25 -8 -35 -32 -23 -54 14 -27 138 -142 152 -142 16 0 299 281
299 297 0 18 -31 45 -45 39 -7 -2 -31 12 -53 33 -22 21 -62 46 -88 55 -59 20
-155 19 -214 -1z m380 -120 c0 -22 -259 -283 -280 -283 -21 0 -140 121 -140
142 0 32 33 19 87 -34 l53 -53 123 123 c116 116 157 143 157 105z"/>
<path d="M440 354 c-106 -107 -100 -117 7 -13 86 84 108 109 97 109 -5 0 -52
-43 -104 -96z"/>
</g>
</svg>
