<svg width="14" height="38" viewBox="0 0 14 38" fill="none" xmlns="http://www.w3.org/2000/svg">
<path d="M0 0L11.9084 6.46454C13.1973 7.16427 14 8.51331 14 9.97996V28.02C14 29.4867 13.1973 30.8357 11.9084 31.5355L0 38V0Z" fill="#455162"/>
<path d="M8.7906 21.774L6.01298 18.9964L8.7906 16.2188C9.0698 15.9396 9.0698 15.4886 8.7906 15.2094C8.51141 14.9302 8.0604 14.9302 7.78121 15.2094L4.4953 18.4953C4.21611 18.7745 4.21611 19.2255 4.4953 19.5047L7.78121 22.7906C8.0604 23.0698 8.51141 23.0698 8.7906 22.7906C9.06264 22.5114 9.0698 22.0532 8.7906 21.774Z" fill="white"/>
</svg>
