<svg width="14" height="14" viewBox="0 0 14 14" fill="none" xmlns="http://www.w3.org/2000/svg">
    <path d="M0.77917 12.7015L0.747717 12.7859V12.876C0.747717 12.9653 0.771948 13.0699 0.839464 13.1657C0.905021 13.2588 0.988504 13.3113 1.0548 13.3394C1.17128 13.3887 1.27345 13.3801 1.30396 13.3772C1.38134 13.3697 1.44245 13.3461 1.46662 13.3364C1.52935 13.3113 1.59164 13.276 1.64865 13.2392C1.76779 13.1624 1.91941 13.043 2.10005 12.8685C2.46262 12.5183 2.96235 11.9266 3.57233 10.9545L2.91363 10.4102C3.09018 10.3126 3.26502 10.2203 3.43389 10.1334L3.56574 10.0655L3.63928 9.93676C4.31067 8.76101 5.25154 6.7335 5.88005 5.23236L5.9451 5.077L5.90289 4.91394C5.673 4.02605 5.50142 3.2546 5.41951 2.58861C5.33725 1.91973 5.35021 1.39165 5.46339 0.977804L5.46364 0.976858C5.52444 0.752825 5.78344 0.540589 6.14753 0.505091C6.01688 0.560514 5.94005 0.658121 5.91041 0.701465C5.86014 0.774953 5.83443 0.848976 5.82121 0.892179C5.79265 0.985434 5.77665 1.09168 5.76639 1.18782C5.74497 1.38847 5.7383 1.64939 5.74526 1.92634C5.75897 2.47222 5.8279 3.16459 5.98653 3.66539L6.33393 4.76212L6.89878 3.7599C7.02217 3.54096 7.09254 3.23801 7.13434 2.96132C7.17865 2.66807 7.19999 2.33877 7.1953 2.02809C7.1907 1.72355 7.16075 1.4062 7.08728 1.14918C7.05135 1.02346 6.99506 0.875806 6.89899 0.74938C6.8983 0.748474 6.89761 0.747568 6.89691 0.746661C7.01195 0.862849 7.11004 1.03579 7.15143 1.29382L7.15687 1.32777L7.16692 1.36066C7.28027 1.73182 7.27147 2.26363 7.18307 2.87669C7.1012 3.44441 6.96143 4.0201 6.8421 4.51161C6.83515 4.5402 6.82828 4.5685 6.8215 4.5965L6.78497 4.7472L6.84011 4.89212C7.3805 6.31218 8.16542 7.31296 9.34834 8.03461L9.49776 8.12576L9.67141 8.10382C10.2096 8.03582 10.9937 7.95415 11.7282 7.97783C12.0955 7.98967 12.4336 8.02748 12.714 8.0992C12.9989 8.17208 13.1817 8.26927 13.284 8.36909C13.3527 8.43838 13.4116 8.54323 13.4505 8.66825C13.3198 8.51413 13.1342 8.41948 12.9677 8.35847C12.5305 8.1983 11.806 8.11979 10.685 8.20277L10.5255 9.16125C11.5593 9.60264 12.2066 9.75033 12.6244 9.76809C12.8367 9.77712 13.0059 9.75337 13.1418 9.705C13.1996 9.68442 13.2507 9.65956 13.2956 9.63151C13.2594 9.67573 13.2186 9.71548 13.1733 9.75022C13.0426 9.85057 12.8443 9.9325 12.5417 9.9325C11.7294 9.9325 10.431 9.54567 9.28951 8.93002L9.13886 8.84877L8.97002 8.87689C7.82288 9.06795 6.55386 9.49782 5.37986 9.89549C5.12048 9.98335 4.86574 10.0696 4.61798 10.1514L4.4376 10.211L4.34226 10.3753C3.57478 11.698 2.90695 12.5031 2.35827 12.9652C1.80957 13.4274 1.41863 13.5161 1.18173 13.4977C0.951316 13.4798 0.770938 13.3533 0.646727 13.1684C0.511584 12.9673 0.487302 12.7639 0.505207 12.6783L0.506042 12.6742C0.595539 12.227 0.963327 11.7604 1.54651 11.2964C1.79175 11.1013 2.06088 10.9177 2.33724 10.7464C2.17639 10.8934 1.99626 11.063 1.82256 11.2401C1.42888 11.6414 0.978412 12.1666 0.77917 12.7015ZM4.39118 9.25231L3.69093 10.4715L5.00375 9.9682C5.26548 9.86785 5.52788 9.76013 5.79378 9.65096C6.58998 9.32409 7.4176 8.98433 8.35287 8.79111L9.44763 8.56494L8.54928 7.89964C7.91232 7.42791 7.29531 6.72884 6.80749 5.84194L6.28548 4.89289L5.90181 5.9058C5.48507 7.006 4.97731 8.2318 4.39118 9.25231ZM7.21081 8.05558C6.74491 8.19915 6.3022 8.36633 5.8884 8.53186C6.09864 8.08509 6.29446 7.62923 6.47522 7.18413C6.70546 7.5024 6.95228 7.79384 7.21081 8.05558Z" stroke="#1D242E"/>
    </svg>
    