<svg width="31" height="31" viewBox="0 0 31 31" fill="none" xmlns="http://www.w3.org/2000/svg">
    <path d="M27.8333 6.25H21.6667V3.16666C21.6667 1.47083 20.2792 0.0833282 18.5833 0.0833282H12.4167C10.7208 0.0833282 9.33333 1.47083 9.33333 3.16666V6.25H3.16666C1.47083 6.25 0.0833282 7.6375 0.0833282 9.33333V27.8333C0.0833282 29.5292 1.47083 30.9167 3.16666 30.9167H27.8333C29.5292 30.9167 30.9167 29.5292 30.9167 27.8333V9.33333C30.9167 7.6375 29.5292 6.25 27.8333 6.25ZM12.4167 3.16666H18.5833V6.25H12.4167V3.16666ZM27.8333 27.8333H3.16666V9.33333H27.8333V27.8333Z" fill="#03A9F5"/>
    <path d="M17.0417 12.4167H13.9583V17.0417H9.33333V20.125H13.9583V24.75H17.0417V20.125H21.6667V17.0417H17.0417V12.4167Z" fill="#03A9F5"/>
    </svg>
    