<svg width="12" height="14" viewBox="0 0 12 14" fill="none" xmlns="http://www.w3.org/2000/svg">
    <path d="M5.74359 14C6.53333 14 7.17949 13.3538 7.17949 12.5641H4.30769C4.30769 13.3538 4.95385 14 5.74359 14ZM10.0513 9.69231V6.10256C10.0513 3.89846 8.88103 2.05333 6.82051 1.56513V1.07692C6.82051 0.481026 6.33949 0 5.74359 0C5.14769 0 4.66667 0.481026 4.66667 1.07692V1.56513C2.61333 2.05333 1.4359 3.89128 1.4359 6.10256V9.69231L0 11.1282V11.8462H11.4872V11.1282L10.0513 9.69231ZM8.61539 10.4103H2.87179V6.10256C2.87179 4.32205 3.9559 2.87179 5.74359 2.87179C7.53128 2.87179 8.61539 4.32205 8.61539 6.10256V10.4103Z" fill="white"/>
    </svg>
    