<svg width="14" height="14" viewBox="0 0 14 14" fill="none" xmlns="http://www.w3.org/2000/svg">
    <path d="M5.25 6.9965C5.25 7.38131 4.935 7.69615 4.55 7.69615C4.165 7.69615 3.85 7.38131 3.85 6.9965C3.85 6.61169 4.165 6.29685 4.55 6.29685C4.935 6.29685 5.25 6.61169 5.25 6.9965ZM8.225 5.5972C8.61 5.5972 8.925 5.28236 8.925 4.89755C8.925 4.51274 8.61 4.1979 8.225 4.1979C7.84 4.1979 7.525 4.51274 7.525 4.89755C7.525 5.28236 7.84 5.5972 8.225 5.5972ZM5.775 5.5972C6.16 5.5972 6.475 5.28236 6.475 4.89755C6.475 4.51274 6.16 4.1979 5.775 4.1979C5.39 4.1979 5.075 4.51274 5.075 4.89755C5.075 5.28236 5.39 5.5972 5.775 5.5972ZM5.775 8.3958C5.39 8.3958 5.075 8.71064 5.075 9.09545C5.075 9.48026 5.39 9.7951 5.775 9.7951C6.16 9.7951 6.475 9.48026 6.475 9.09545C6.475 8.71064 6.16 8.3958 5.775 8.3958ZM14 6.47176V7.52124C14 7.8081 13.762 8.04598 13.475 8.04598C13.188 8.04598 12.95 7.8081 12.95 7.52124H11.872C11.767 8.47976 11.389 9.36132 10.808 10.075L11.571 10.8376L11.578 10.8306C11.781 10.6277 12.117 10.6277 12.32 10.8306C12.523 11.0335 12.523 11.3693 12.32 11.5722L11.578 12.3138C11.375 12.5167 11.039 12.5167 10.836 12.3138C10.633 12.1109 10.633 11.7821 10.829 11.5792L10.066 10.8166C9.352 11.3903 8.477 11.7681 7.518 11.8731V12.9505H7.525C7.812 12.9505 8.05 13.1884 8.05 13.4753C8.05 13.7621 7.812 14 7.525 14H6.475C6.188 14 5.95 13.7621 5.95 13.4753C5.95 13.1884 6.181 12.9575 6.468 12.9505V11.8661C5.509 11.7611 4.634 11.3833 3.927 10.8096L3.164 11.5722L3.171 11.5792C3.374 11.7821 3.374 12.1179 3.171 12.3208C2.968 12.5237 2.632 12.5237 2.429 12.3208L1.68 11.5722C1.477 11.3693 1.477 11.0335 1.68 10.8306C1.883 10.6277 2.212 10.6277 2.415 10.8236L3.178 10.061C2.604 9.34733 2.226 8.47976 2.128 7.52124H1.05C1.05 7.8081 0.812 8.04598 0.525 8.04598C0.238 8.04598 0 7.8081 0 7.52124V6.47176C0 6.18491 0.238 5.94703 0.525 5.94703C0.812 5.94703 1.05 6.18491 1.05 6.47176H2.128C2.233 5.51324 2.611 4.64568 3.178 3.93203L2.415 3.16942C2.212 3.36532 1.883 3.36532 1.68 3.16242C1.477 2.95952 1.477 2.62369 1.68 2.42079L2.422 1.67916C2.625 1.47626 2.961 1.47626 3.164 1.67916C3.367 1.88206 3.367 2.21789 3.164 2.42079L3.157 2.42779L3.92 3.1904C4.634 2.61669 5.502 2.23888 6.461 2.13393V1.04948C6.174 1.04248 5.943 0.811594 5.943 0.524738C5.95 0.237881 6.188 0 6.475 0H7.525C7.812 0 8.05 0.237881 8.05 0.524738C8.05 0.811594 7.812 1.04948 7.525 1.04948H7.518V2.12694C8.477 2.22489 9.352 2.6097 10.066 3.18341L10.829 2.42079C10.626 2.21789 10.633 1.88906 10.836 1.68616C11.039 1.48326 11.375 1.48326 11.578 1.68616L12.32 2.42779C12.523 2.63068 12.523 2.96652 12.32 3.16942C12.117 3.37231 11.781 3.37231 11.578 3.16942L11.571 3.16242L10.808 3.91804C11.382 4.63168 11.767 5.50625 11.872 6.47176H12.95C12.95 6.18491 13.188 5.94703 13.475 5.94703C13.762 5.94703 14 6.18491 14 6.47176ZM10.5 6.9965C10.5 5.06547 8.932 3.49825 7 3.49825C5.068 3.49825 3.5 5.06547 3.5 6.9965C3.5 8.92754 5.068 10.4948 7 10.4948C8.932 10.4948 10.5 8.92754 10.5 6.9965ZM7 6.29685C6.615 6.29685 6.3 6.61169 6.3 6.9965C6.3 7.38131 6.615 7.69615 7 7.69615C7.385 7.69615 7.7 7.38131 7.7 6.9965C7.7 6.61169 7.385 6.29685 7 6.29685ZM9.45 6.29685C9.065 6.29685 8.75 6.61169 8.75 6.9965C8.75 7.38131 9.065 7.69615 9.45 7.69615C9.835 7.69615 10.15 7.38131 10.15 6.9965C10.15 6.61169 9.835 6.29685 9.45 6.29685ZM8.225 8.3958C7.84 8.3958 7.525 8.71064 7.525 9.09545C7.525 9.48026 7.84 9.7951 8.225 9.7951C8.61 9.7951 8.925 9.48026 8.925 9.09545C8.925 8.71064 8.61 8.3958 8.225 8.3958Z" fill="white"/>
    </svg>
    