<svg width="14" height="8" viewBox="0 0 14 8" fill="none" xmlns="http://www.w3.org/2000/svg">
    <path d="M14 1.27273C14 1.97273 13.4273 2.54545 12.7273 2.54545C12.6127 2.54545 12.5045 2.53273 12.4027 2.50091L10.1373 4.76C10.1691 4.86182 10.1818 4.97636 10.1818 5.09091C10.1818 5.79091 9.60909 6.36364 8.90909 6.36364C8.20909 6.36364 7.63636 5.79091 7.63636 5.09091C7.63636 4.97636 7.64909 4.86182 7.68091 4.76L6.05818 3.13727C5.95636 3.16909 5.84182 3.18182 5.72727 3.18182C5.61273 3.18182 5.49818 3.16909 5.39636 3.13727L2.50091 6.03909C2.53273 6.14091 2.54545 6.24909 2.54545 6.36364C2.54545 7.06364 1.97273 7.63636 1.27273 7.63636C0.572727 7.63636 0 7.06364 0 6.36364C0 5.66364 0.572727 5.09091 1.27273 5.09091C1.38727 5.09091 1.49545 5.10364 1.59727 5.13545L4.49909 2.24C4.46727 2.13818 4.45455 2.02364 4.45455 1.90909C4.45455 1.20909 5.02727 0.636364 5.72727 0.636364C6.42727 0.636364 7 1.20909 7 1.90909C7 2.02364 6.98727 2.13818 6.95545 2.24L8.57818 3.86273C8.68 3.83091 8.79455 3.81818 8.90909 3.81818C9.02364 3.81818 9.13818 3.83091 9.24 3.86273L11.4991 1.59727C11.4673 1.49545 11.4545 1.38727 11.4545 1.27273C11.4545 0.572727 12.0273 0 12.7273 0C13.4273 0 14 0.572727 14 1.27273Z" fill="white"/>
    </svg>
    