<svg width="35" height="25" viewBox="0 0 35 25" fill="none" xmlns="http://www.w3.org/2000/svg">
    <path d="M28.2917 15.5833V3.25C28.2917 1.55417 26.9042 0.166672 25.2083 0.166672H3.625C1.92917 0.166672 0.541667 1.55417 0.541667 3.25V15.5833C0.541667 17.2792 1.92917 18.6667 3.625 18.6667H25.2083C26.9042 18.6667 28.2917 17.2792 28.2917 15.5833ZM25.2083 15.5833H3.625V3.25H25.2083V15.5833ZM14.4167 4.79167C11.8575 4.79167 9.79167 6.8575 9.79167 9.41667C9.79167 11.9758 11.8575 14.0417 14.4167 14.0417C16.9758 14.0417 19.0417 11.9758 19.0417 9.41667C19.0417 6.8575 16.9758 4.79167 14.4167 4.79167ZM34.4583 4.79167V21.75C34.4583 23.4458 33.0708 24.8333 31.375 24.8333H5.16667C5.16667 23.2917 5.16667 23.4458 5.16667 21.75H31.375V4.79167C33.0708 4.79167 32.9167 4.79167 34.4583 4.79167Z" fill="#FED600"/>
    </svg>
    