<svg width="20" height="18" viewBox="0 0 20 18" fill="none" xmlns="http://www.w3.org/2000/svg">
    <path d="M10.725 11.5583L8.60833 9.46666L8.63333 9.44166C10.0833 7.82499 11.1167 5.96666 11.725 3.99999H14.1667V2.33332H8.33333V0.666656H6.66666V2.33332H0.833328V3.99166H10.1417C9.58333 5.59999 8.69999 7.12499 7.49999 8.45832C6.72499 7.59999 6.08333 6.65832 5.57499 5.66666H3.90833C4.51666 7.02499 5.34999 8.30832 6.39166 9.46666L2.14999 13.65L3.33333 14.8333L7.49999 10.6667L10.0917 13.2583L10.725 11.5583ZM15.4167 7.33332H13.75L9.99999 17.3333H11.6667L12.6 14.8333H16.5583L17.5 17.3333H19.1667L15.4167 7.33332ZM13.2333 13.1667L14.5833 9.55832L15.9333 13.1667H13.2333Z" fill="#1D242E"/>
    </svg>
    